<svg aria-hidden="true" style="position: absolute; width: 0; height: 0; overflow: hidden;" version="1.1" xmlns="http://www.w3.org/2000/svg" xmlns:xlink="http://www.w3.org/1999/xlink">
<defs>
<symbol id="icon-cross" viewBox="0 0 32 32">
    <path fill="none" stroke="#fff" style="stroke: var(--color1, #fff)" stroke-linejoin="miter" stroke-linecap="butt" stroke-miterlimit="4" stroke-width="2" d="M2.519 2l26.963 28"></path>
    <path fill="none" stroke="#fff" style="stroke: var(--color1, #fff)" stroke-linejoin="miter" stroke-linecap="butt" stroke-miterlimit="4" stroke-width="2" d="M2 29.481l28-26.963"></path>
</symbol>
<symbol id="icon-menu" viewBox="0 0 46 32">
    <path fill="none" stroke="#d41443" style="stroke: var(--color2, #d41443)" stroke-linejoin="miter" stroke-linecap="butt" stroke-miterlimit="4" stroke-width="2.2857" d="M0 2.286h45.714"></path>
    <path fill="none" stroke="#d41443" style="stroke: var(--color2, #d41443)" stroke-linejoin="miter" stroke-linecap="butt" stroke-miterlimit="4" stroke-width="2.2857" d="M0 16h45.714"></path>
    <path fill="none" stroke="#d41443" style="stroke: var(--color2, #d41443)" stroke-linejoin="miter" stroke-linecap="butt" stroke-miterlimit="4" stroke-width="2.2857" d="M0 29.714h45.714"></path>
</symbol>
<symbol id="icon-next" viewBox="0 0 26 32">
    <path fill="none" stroke="#d41443" style="stroke: var(--color1, #d41443)" stroke-linejoin="round" stroke-linecap="round" stroke-miterlimit="4" stroke-width="6.4" d="M3.542 3.2l16.826 12.8-16.826 12.8"></path>
</symbol>
<symbol id="icon-arrow" viewBox="0 0 32 32">
    <path d="M19.414 27.414l10-10c0.781-0.781 0.781-2.047 0-2.828l-10-10c-0.781-0.781-2.047-0.781-2.828 0s-0.781 2.047 0 2.828l6.586 6.586h-19.172c-1.105 0-2 0.895-2 2s0.895 2 2 2h19.172l-6.586 6.586c-0.39 0.39-0.586 0.902-0.586 1.414s0.195 1.024 0.586 1.414c0.781 0.781 2.047 0.781 2.828 0z"></path>
</symbol>
 <symbol id="menu-icon-cross" viewBox="0 0 32 32">
    <path d="M23.734 10.304l-1.504-1.504-5.963 5.962-5.962-5.962-1.504 1.504 5.962 5.962-5.962 5.963 1.504 1.504 5.962-5.963 5.963 5.963 1.504-1.504-5.963-5.963 5.963-5.962z"></path>
</symbol>
<symbol id="icon-github" viewBox="0 0 32 32">
    <path fill="#fea5bb" style="fill: var(--color3, #fea5bb)" d="M32 16c0 8.837-7.163 16-16 16s-16-7.163-16-16c0-8.837 7.163-16 16-16s16 7.163 16 16z"></path>
    <path fill="#fff" style="fill: var(--color2, #fff)" d="M16 6.588c-5.17 0-9.412 4.242-9.412 9.412 0 4.411 3.096 8.419 7.206 9.412v-3.113c-0.408 0.088-0.781 0.091-1.196-0.031-0.556-0.164-1.008-0.535-1.344-1.099-0.214-0.36-0.593-0.753-0.988-0.724l-0.097-1.098c0.856-0.073 1.594 0.521 2.033 1.258 0.196 0.328 0.421 0.52 0.709 0.605 0.278 0.083 0.577 0.043 0.925-0.080 0.088-0.697 0.408-0.958 0.649-1.327-2.452-0.365-3.429-1.666-3.816-2.692-0.514-1.364-0.238-3.066 0.67-4.143 0.018-0.021 0.050-0.075 0.038-0.113-0.417-1.259 0.090-2.3 0.109-2.41 0.481 0.141 0.559-0.143 2.089 0.786l0.264 0.159c0.111 0.066 0.075 0.028 0.186 0.019 0.59-0.166 1.269-0.266 1.97-0.276l0.006-0c0.668 0.008 1.336 0.104 2.002 0.284l0.086 0.009c-0.008-0.002 0.024-0.006 0.075-0.037 1.911-1.158 1.842-0.779 2.355-0.946 0.019 0.111 0.519 1.169 0.106 2.411-0.056 0.171 1.656 1.739 0.708 4.256-0.388 1.026-1.365 2.328-3.816 2.693 0.314 0.48 0.692 0.734 0.69 1.722v3.886c4.109-0.993 7.206-5 7.206-9.412 0-5.17-4.242-9.412-9.412-9.412z"></path>
</symbol>
<symbol id="icon-github-hover" viewBox="0 0 32 32">
    <path fill="#d41443" style="fill: var(--color1, #d41443)" d="M32 16c0 8.837-7.163 16-16 16s-16-7.163-16-16c0-8.837 7.163-16 16-16s16 7.163 16 16z"></path>
    <path fill="#fff" style="fill: var(--color2, #fff)" d="M16 6.588c-5.169 0-9.412 4.242-9.412 9.412 0 4.411 3.095 8.419 7.206 9.412v-3.114c-0.407 0.089-0.782 0.092-1.197-0.030-0.556-0.164-1.008-0.535-1.344-1.1-0.214-0.361-0.593-0.752-0.988-0.723l-0.097-1.099c0.855-0.073 1.595 0.521 2.034 1.259 0.195 0.328 0.419 0.52 0.708 0.605 0.278 0.082 0.578 0.043 0.926-0.080 0.088-0.698 0.407-0.959 0.648-1.326v-0.001c-2.451-0.366-3.428-1.666-3.816-2.693-0.514-1.363-0.238-3.066 0.671-4.142 0.018-0.021 0.050-0.076 0.037-0.114-0.417-1.258 0.091-2.299 0.11-2.41 0.481 0.142 0.559-0.143 2.089 0.786l0.264 0.159c0.111 0.066 0.076 0.028 0.186 0.020 0.639-0.173 1.312-0.269 1.975-0.278 0.668 0.009 1.337 0.104 2.002 0.285l0.086 0.009c-0.007-0.001 0.023-0.005 0.075-0.036 1.911-1.157 1.842-0.779 2.355-0.946 0.019 0.111 0.519 1.169 0.107 2.411-0.056 0.171 1.657 1.739 0.708 4.256-0.388 1.027-1.365 2.328-3.816 2.693v0.001c0.314 0.479 0.692 0.734 0.69 1.722v3.887c4.111-0.993 7.206-5 7.206-9.412 0-5.169-4.242-9.412-9.412-9.412v0z"></path>
</symbol>
<symbol id="icon-telegram" viewBox="0 0 32 32">
    <path fill="#fea5bb" style="fill: var(--color3, #fea5bb)" d="M32 16c0 8.837-7.163 16-16 16s-16-7.163-16-16c0-8.837 7.163-16 16-16s16 7.163 16 16z"></path>
    <path fill="#fff" style="fill: var(--color2, #fff)" d="M12.867 18.376l-0.317 4.169c0.455 0 0.651-0.183 0.888-0.401l2.13-1.901 4.414 3.018c0.809 0.421 1.381 0.199 1.6-0.696l2.897-12.673c0.258-1.117-0.433-1.554-1.221-1.28l-17.032 6.086c-1.162 0.422-1.145 1.026-0.198 1.301l4.355 1.264 10.114-5.907c0.476-0.295 0.909-0.132 0.553 0.163l-8.182 6.856z"></path>
</symbol>
<symbol id="icon-telegram-hover" viewBox="0 0 32 32">
    <path fill="#d41443" style="fill: var(--color1, #d41443)" d="M32 16c0 8.837-7.163 16-16 16s-16-7.163-16-16c0-8.837 7.163-16 16-16s16 7.163 16 16z"></path>
    <path fill="#fff" style="fill: var(--color2, #fff)" d="M12.867 18.375l-0.318 4.169c0.454 0 0.651-0.182 0.887-0.401l2.13-1.9 4.415 3.017c0.81 0.421 1.38 0.199 1.598-0.695l2.898-12.673c0.257-1.117-0.433-1.554-1.222-1.28l-17.032 6.086c-1.162 0.421-1.145 1.026-0.198 1.3l4.354 1.264 10.115-5.907c0.476-0.294 0.909-0.131 0.553 0.163l-8.182 6.857z"></path>
</symbol>
<symbol id="icon-facebook" viewBox="0 0 32 32">
    <path fill="#fea5bb" style="fill: var(--color3, #fea5bb)" d="M16 32c8.837 0 16-7.163 16-16s-7.163-16-16-16-16 7.163-16 16 7.163 16 16 16z"></path>
    <path fill="#fff" style="fill: var(--color2, #fff)" d="M20.446 15.981h-2.611v9.619h-3.955v-9.619h-1.88v-3.379h1.88v-2.187c0-1.564 0.739-4.014 3.991-4.014l2.929 0.012v3.281h-2.125c-0.348 0-0.839 0.176-0.839 0.922v1.989h2.955l-0.345 3.377z"></path>
</symbol>
<symbol id="icon-facebook-hover" viewBox="0 0 32 32">
    <path fill="#d41443" style="fill: var(--color1, #d41443)" d="M16 32c8.837 0 16-7.163 16-16s-7.163-16-16-16c-8.837 0-16 7.163-16 16s7.163 16 16 16z"></path>
    <path fill="#fff" style="fill: var(--color2, #fff)" d="M20.446 15.982h-2.61v9.619h-3.955v-9.619h-1.881v-3.38h1.881v-2.187c0-1.564 0.739-4.014 3.99-4.014l2.929 0.012v3.281h-2.125c-0.349 0-0.839 0.175-0.839 0.921v1.989h2.955l-0.346 3.377z"></path>
</symbol>
<symbol id="icon-quotes-right" viewBox="0 0 32 32">
    <path d="M25 20c-3.866 0-7-3.134-7-7s3.134-7 7-7 7 3.134 7 7l0.031 1c0 7.732-6.268 14-14 14v-4c2.671 0 5.182-1.040 7.071-2.929 0.364-0.364 0.695-0.75 0.995-1.157-0.357 0.056-0.724 0.086-1.097 0.086zM7 20c-3.866 0-7-3.134-7-7s3.134-7 7-7 7 3.134 7 7l0.031 1c0 7.732-6.268 14-14 14v-4c2.671 0 5.182-1.040 7.071-2.929 0.364-0.364 0.695-0.75 0.995-1.157-0.357 0.056-0.724 0.086-1.097 0.086z"></path>
</symbol>
<symbol id="icon-github-base" viewBox="0 0 32 32">
    <path d="M14.533 2.8c-6.133 0.667-11.067 5.6-11.733 11.6-0.667 6.267 2.933 11.867 8.4 14 0.4 0.133 0.8-0.133 0.8-0.667v-2.133c0 0-0.533 0.133-1.2 0.133-1.867 0-2.667-1.6-2.8-2.533-0.133-0.533-0.4-0.933-0.8-1.333-0.4-0.133-0.533-0.133-0.533-0.267 0-0.267 0.4-0.267 0.533-0.267 0.8 0 1.467 0.933 1.733 1.333 0.667 1.067 1.467 1.333 1.867 1.333 0.533 0 0.933-0.133 1.2-0.267 0.133-0.933 0.533-1.867 1.333-2.4-3.067-0.667-5.333-2.4-5.333-5.333 0-1.467 0.667-2.933 1.6-4-0.133-0.267-0.267-0.933-0.267-1.867 0-0.533 0-1.2 0.267-1.733 0-0.267 0.267-0.4 0.4-0.4 0 0 0.133 0 0.133 0 0.667 0.133 2 0.533 3.2 1.733 0.8-0.267 1.733-0.4 2.667-0.4s1.867 0.133 2.667 0.4c1.2-1.2 2.667-1.6 3.333-1.733 0 0 0.133 0 0.133 0 0.267 0 0.4 0.133 0.533 0.4 0 0.533 0 1.2 0 1.733 0 1.067-0.133 1.6-0.267 1.867 0.933 1.067 1.6 2.4 1.6 4 0 2.933-2.267 4.667-5.333 5.333 0.8 0.667 1.333 1.867 1.333 3.067v3.467c0 0.4 0.4 0.8 0.933 0.667 4.933-2 8.4-6.8 8.4-12.4 0-8-6.8-14.267-14.8-13.333z"></path>
</symbol>
<symbol id="icon-telegram-base" viewBox="0 0 32 32">
    <path fill="#fff" style="fill: var(--color1, #fff)" d="M32 0l-32 18 10.227 3.787 15.773-14.787-11.997 16.187 0.009 0.003-0.012-0.003v8.813l5.735-6.691 7.267 2.691 4.999-28z"></path>
</symbol>
<symbol id="icon-facebook-base" viewBox="0 0 32 32">
    4v16h6v-16h5l1-6h-6v-3c0-0.542 0.458-1 1-1z"></path>
</symbol>
<symbol id="icon-next-white" viewBox="0 0 22 32">
    <path fill="none" stroke="#fff" style="stroke: var(--color1, #fff)" stroke-linejoin="round" stroke-linecap="round" stroke-miterlimit="4" stroke-width="6.4" d="M4.49 3.2l13.696 12.8-13.696 12.8"></path>
</symbol>
</defs>
</svg>
